<svg xmlns="http://www.w3.org/2000/svg" viewBox="0 0 651.863302 658.803519" fill="currentColor" role="img" aria-label="Woven">
<g transform="translate(-196.000000,957.921860) scale(0.100000,-0.100000)"
fill="currentColor" stroke="none">
<path d="M5760 9562 c-14 -9 -55 -46 -92 -81 -60 -57 -68 -68 -68 -101 0 -22
8 -48 20 -63 11 -14 20 -34 20 -45 0 -10 9 -27 20 -37 12 -10 20 -31 20 -49 1
-17 7 -42 15 -56 8 -14 14 -51 14 -85 0 -34 -6 -71 -14 -85 -8 -14 -14 -36
-15 -50 0 -14 -18 -52 -40 -85 -22 -33 -40 -64 -40 -68 0 -5 -47 -61 -105
-125 -58 -65 -105 -126 -105 -137 0 -21 172 -195 193 -195 16 0 193 183 250
258 26 35 62 89 78 120 17 31 35 61 40 67 5 5 9 20 9 32 0 13 9 41 20 63 18
35 20 59 20 212 0 156 -2 176 -20 203 -11 17 -20 43 -20 58 0 24 -17 65 -52
127 -5 8 -15 29 -23 47 -8 17 -20 35 -25 38 -6 4 -15 18 -20 31 -11 29 -43 31
-80 6z"/>
<path d="M4090 8899 c-19 -10 -47 -19 -61 -19 -14 0 -38 -9 -52 -20 -14 -11
-32 -20 -40 -20 -8 0 -26 -9 -40 -20 -14 -11 -28 -20 -32 -20 -3 0 -37 -25
-76 -56 -67 -55 -189 -202 -189 -228 0 -7 -9 -21 -20 -31 -11 -10 -20 -27 -20
-37 0 -10 -9 -36 -20 -58 -11 -22 -20 -52 -20 -68 0 -16 -7 -51 -15 -78 -27
-91 -29 -163 -6 -222 12 -29 21 -63 21 -75 0 -12 9 -37 20 -55 11 -18 20 -41
20 -51 0 -10 9 -30 20 -44 11 -14 20 -32 20 -40 0 -9 4 -18 9 -21 5 -3 24 -32
41 -64 41 -72 140 -194 183 -224 17 -12 37 -27 42 -33 6 -6 23 -19 38 -29 l28
-17 100 100 c74 74 98 104 92 115 -4 8 -44 54 -88 102 -96 105 -165 192 -165
209 0 6 -9 20 -20 30 -11 10 -20 29 -20 42 0 13 -9 40 -20 60 -15 28 -20 57
-20 113 0 56 5 86 20 115 11 22 20 47 20 56 0 20 92 143 138 183 19 17 44 39
55 49 11 9 24 17 29 17 6 0 21 9 35 20 24 18 41 20 217 20 l191 -1 221 -217
c122 -119 400 -392 618 -606 l397 -389 38 12 c43 13 201 153 201 179 0 20
-731 748 -980 977 -102 93 -198 182 -215 198 -55 53 -181 127 -218 127 -12 0
-42 9 -66 20 -38 17 -64 20 -210 19 -145 0 -170 -3 -201 -20z"/>
<path d="M6815 7980 c-16 -11 -40 -20 -52 -20 -12 0 -25 -4 -28 -10 -3 -5 -32
-26 -63 -47 -31 -21 -62 -42 -68 -48 -234 -211 -317 -288 -529 -496 -495 -485
-695 -685 -695 -696 0 -6 42 -55 94 -108 72 -75 97 -96 109 -89 8 5 190 182
404 394 628 622 767 753 813 773 14 6 33 18 43 26 10 8 39 18 65 22 26 4 68
13 95 20 40 11 55 10 101 -4 29 -9 66 -17 83 -17 16 0 40 -9 53 -20 13 -11 31
-20 42 -20 26 0 198 -174 198 -201 0 -11 9 -32 20 -46 18 -23 20 -41 20 -175
0 -135 -2 -152 -20 -175 -11 -14 -20 -35 -20 -45 0 -11 -9 -31 -20 -45 -11
-14 -20 -31 -20 -38 0 -7 -49 -65 -110 -129 -60 -63 -110 -119 -110 -124 0
-15 181 -202 195 -202 18 0 225 204 258 255 14 22 40 59 57 83 16 23 30 47 30
53 0 6 9 22 20 36 11 14 20 37 20 52 0 14 9 40 20 56 18 27 20 47 20 208 0
158 -2 181 -20 214 -11 21 -20 48 -20 61 0 13 -9 40 -20 60 -10 20 -22 44 -25
52 -3 8 -16 31 -28 51 -74 121 -118 166 -226 234 -9 6 -28 18 -43 28 -14 9
-33 17 -41 17 -8 0 -26 9 -40 20 -14 11 -36 20 -49 20 -13 0 -40 9 -61 20 -33
18 -56 20 -229 20 -176 0 -196 -2 -223 -20z"/>
<path d="M4713 7833 c-198 -182 -1173 -1157 -1173 -1175 0 -17 186 -198 204
-198 6 0 300 290 654 645 555 556 642 647 633 663 -21 39 -160 172 -180 172
-11 0 -69 -45 -138 -107z"/>
<path d="M2230 7060 c-19 -11 -48 -19 -65 -20 -16 0 -43 -9 -60 -20 -16 -11
-35 -20 -42 -20 -7 0 -32 -14 -57 -31 -44 -29 -46 -33 -46 -78 0 -34 6 -57 22
-77 39 -53 113 -126 136 -135 24 -9 65 2 88 26 9 8 26 15 38 15 13 0 31 9 41
20 10 11 29 20 42 20 13 0 38 7 55 16 88 46 310 -37 418 -156 8 -9 76 -70 150
-136 74 -65 318 -301 542 -523 225 -222 417 -410 427 -418 18 -12 28 -6 121
84 55 53 100 102 100 109 0 17 -727 743 -960 959 -271 251 -302 278 -336 295
-16 8 -40 22 -53 32 -13 10 -36 18 -50 18 -14 0 -43 9 -64 20 -33 18 -56 20
-224 20 -166 -1 -192 -3 -223 -20z"/>
<path d="M4546 6958 c-53 -56 -96 -109 -96 -118 0 -9 291 -307 646 -663 607
-607 647 -646 666 -633 11 8 50 41 87 74 36 32 81 72 100 89 l34 30 -21 29
c-39 54 -1290 1294 -1305 1294 -8 0 -58 -46 -111 -102z"/>
<path d="M6387 6958 c-62 -65 -97 -108 -95 -120 4 -23 732 -756 908 -914 152
-135 276 -237 303 -247 9 -3 17 -11 17 -17 0 -5 15 -16 33 -25 34 -16 58 -30
96 -57 13 -10 30 -18 38 -18 8 0 26 -9 40 -20 14 -11 37 -20 52 -20 14 0 46
-9 70 -20 61 -28 201 -28 262 0 24 11 58 20 74 20 17 0 44 9 60 20 17 11 40
20 51 20 12 0 27 7 34 15 6 8 22 17 33 21 42 13 107 59 113 81 10 36 -5 62
-78 134 -69 69 -70 69 -125 69 -40 0 -62 -5 -80 -20 -14 -11 -34 -20 -44 -20
-11 0 -36 -9 -56 -20 -29 -15 -57 -20 -118 -20 -61 0 -89 5 -118 20 -20 11
-44 20 -52 20 -9 0 -38 17 -65 38 -27 20 -68 51 -92 69 -50 37 -129 114 -711
689 -235 233 -433 424 -440 424 -7 0 -56 -46 -110 -102z"/>
<path d="M2904 6028 c-119 -123 -175 -191 -214 -260 -17 -32 -36 -61 -41 -64
-5 -3 -9 -14 -9 -25 0 -11 -9 -37 -19 -57 -41 -78 -60 -269 -37 -359 9 -34 16
-74 16 -89 0 -16 9 -42 20 -59 11 -16 20 -37 20 -46 0 -9 9 -26 20 -39 11 -13
20 -31 20 -41 0 -10 6 -22 13 -26 7 -4 29 -31 49 -58 58 -80 148 -160 247
-220 9 -5 28 -17 43 -27 15 -10 35 -18 44 -18 9 0 31 -8 48 -19 78 -47 440
-47 508 0 14 11 33 19 41 19 8 0 36 17 63 38 27 20 66 49 87 63 79 53 852 801
1043 1009 153 167 164 201 87 281 -34 35 -55 49 -74 49 -29 0 -99 -42 -146
-88 -16 -15 -84 -77 -153 -137 -68 -61 -221 -204 -339 -320 -118 -115 -245
-239 -281 -275 -110 -108 -172 -163 -235 -212 -33 -26 -69 -55 -80 -65 -11
-10 -31 -24 -45 -30 -14 -7 -32 -17 -40 -22 -8 -5 -36 -18 -61 -30 -64 -29
-188 -30 -242 -1 -20 11 -46 20 -58 20 -11 0 -32 9 -46 20 -14 11 -31 20 -38
20 -17 0 -155 138 -155 155 0 7 -9 24 -20 38 -11 14 -20 35 -20 46 0 12 -9 38
-20 58 -28 52 -27 171 0 232 11 24 20 51 20 61 0 9 9 29 20 43 11 14 20 28 20
31 0 17 130 182 204 259 29 32 43 54 38 62 -14 26 -180 175 -194 175 -8 0 -55
-42 -104 -92z"/>
<path d="M6032 5470 l-653 -650 20 -29 c26 -36 172 -171 186 -171 5 0 297 288
648 640 548 549 638 643 633 662 -7 28 -153 198 -169 198 -7 -1 -306 -293
-665 -650z"/>
<path d="M6393 5124 c-57 -58 -103 -113 -103 -123 0 -9 34 -50 76 -91 88 -87
194 -213 194 -231 0 -7 8 -21 17 -31 46 -51 47 -322 0 -388 -9 -13 -17 -30
-17 -37 0 -37 -136 -183 -170 -183 -6 0 -23 -9 -37 -20 -14 -11 -37 -20 -52
-20 -14 0 -39 -7 -56 -16 -17 -9 -64 -19 -107 -22 -65 -4 -83 -1 -118 17 -22
11 -48 21 -56 21 -9 0 -38 18 -64 40 -26 22 -52 40 -56 40 -17 0 -161 136
-471 444 -516 511 -706 696 -718 696 -15 0 -205 -197 -205 -213 0 -6 84 -94
188 -195 103 -101 313 -308 467 -460 332 -327 358 -352 495 -462 119 -96 165
-130 178 -130 5 0 17 -9 27 -20 10 -11 25 -20 32 -20 8 0 26 -9 40 -20 14 -11
36 -20 48 -20 12 0 48 -9 80 -20 73 -25 122 -25 216 0 41 11 88 20 104 20 17
0 44 9 60 20 17 11 40 20 52 20 12 0 25 5 29 11 3 6 22 18 41 26 19 8 40 18
47 23 150 120 223 197 267 279 15 27 34 59 43 72 9 13 16 34 16 47 0 12 10 42
21 65 20 37 22 58 22 223 0 169 -1 183 -21 216 -12 20 -22 42 -22 51 0 16 -31
78 -65 132 -60 92 -295 366 -314 365 -3 0 -52 -48 -108 -106z"/>
<path d="M4715 4149 c-66 -72 -127 -138 -136 -147 -17 -18 -71 -108 -90 -152
-6 -14 -19 -43 -30 -65 -10 -22 -19 -53 -19 -70 0 -16 -7 -55 -15 -85 -18 -69
-18 -118 0 -195 8 -33 15 -73 15 -90 0 -29 7 -47 67 -167 42 -87 60 -118 76
-136 7 -9 17 -25 20 -34 12 -34 42 -18 120 63 l77 81 0 68 c0 52 -4 73 -20 93
-11 14 -20 38 -20 54 0 16 -8 39 -17 52 -11 16 -18 52 -21 102 -4 66 -1 84 17
119 11 22 21 51 21 65 0 13 6 30 14 37 7 8 22 29 32 47 11 19 24 42 30 53 6
10 43 53 81 96 117 129 133 149 133 165 0 9 -26 37 -57 64 -32 26 -72 63 -91
81 -18 17 -40 32 -50 31 -9 0 -71 -59 -137 -130z"/>
</g>
</svg>
